<svg xmlns="http://www.w3.org/2000/svg" width="33" height="33" viewBox="0 0 33 33">
  <g id="icon-youtube" transform="translate(-1148 -8203.01)">
    <circle id="Ellipse_13" data-name="Ellipse 13" cx="16.5" cy="16.5" r="16.5" transform="translate(1148 8203.01)" fill="#fff"/>
    <path id="Icon_awesome-youtube" data-name="Icon awesome-youtube" d="M23.57,7.03a2.89,2.89,0,0,0-2.034-2.047C19.743,4.5,12.55,4.5,12.55,4.5s-7.193,0-8.986.484A2.89,2.89,0,0,0,1.531,7.03,30.318,30.318,0,0,0,1.05,12.6a30.318,30.318,0,0,0,.481,5.572,2.847,2.847,0,0,0,2.034,2.014c1.794.484,8.986.484,8.986.484s7.193,0,8.986-.484a2.847,2.847,0,0,0,2.034-2.014,30.318,30.318,0,0,0,.481-5.572A30.318,30.318,0,0,0,23.57,7.03ZM10.2,16.023V9.183L16.21,12.6,10.2,16.023Z" transform="translate(1151.95 8206.11)" fill="#00437a"/>
  </g>
</svg>
