<svg xmlns="http://www.w3.org/2000/svg" width="66" height="67" viewBox="0 0 66 67">
  <g id="icon-data-analyst" transform="translate(-1625.093 -4226.716)">
    <path id="Polygon_18" data-name="Polygon 18" d="M14.412,4.415a3,3,0,0,1,5.176,0L31.352,24.483A3,3,0,0,1,28.764,29H5.236a3,3,0,0,1-2.588-4.517Z" transform="translate(1670.343 4243.216) rotate(90)" fill="#ffb71b"/>
    <g id="Group_80" data-name="Group 80">
      <g id="Path_202" data-name="Path 202" transform="translate(1625.093 4226.716)" fill="none">
        <path d="M33,0C51.225,0,66,15,66,33.5S51.225,67,33,67,0,52,0,33.5,14.775,0,33,0Z" stroke="none"/>
        <path d="M 33 3 C 28.95432281494141 3 25.03084564208984 3.803855895996094 21.33853149414062 5.389232635498047 C 17.76767730712891 6.922454833984375 14.55935668945312 9.118801116943359 11.80268859863281 11.91723251342773 C 9.042934417724609 14.71878814697266 6.876167297363281 17.98128890991211 5.362545013427734 21.61410140991211 C 3.794876098632812 25.37664413452148 3 29.37564468383789 3 33.5 C 3 37.62435531616211 3.794876098632812 41.62335586547852 5.362545013427734 45.38590240478516 C 6.876167297363281 49.01871109008789 9.042934417724609 52.28121185302734 11.80268859863281 55.08276748657227 C 14.55935668945312 57.88119888305664 17.76767730712891 60.07754516601562 21.33853149414062 61.61076736450195 C 25.03084564208984 63.19614410400391 28.95432281494141 64 33 64 C 37.04567718505859 64 40.96915435791016 63.19614410400391 44.66146850585938 61.61076736450195 C 48.23232269287109 60.07754516601562 51.44064331054688 57.88119888305664 54.19731140136719 55.08276748657227 C 56.95706558227539 52.28121185302734 59.12383270263672 49.01871109008789 60.63745498657227 45.38590240478516 C 62.20512390136719 41.62335586547852 63 37.62435531616211 63 33.5 C 63 29.37564468383789 62.20512390136719 25.37664413452148 60.63745498657227 21.61410140991211 C 59.12383270263672 17.98128890991211 56.95706558227539 14.71878814697266 54.19731140136719 11.91723251342773 C 51.44064331054688 9.118801116943359 48.23232269287109 6.922454833984375 44.66146850585938 5.389232635498047 C 40.96915435791016 3.803855895996094 37.04567718505859 3 33 3 M 33 0 C 51.22539901733398 0 66 14.99845504760742 66 33.5 C 66 52.00154495239258 51.22539901733398 67 33 67 C 14.77460098266602 67 0 52.00154495239258 0 33.5 C 0 14.99845504760742 14.77460098266602 0 33 0 Z" stroke="none" fill="#3cb4e5"/>
      </g>
      <path id="Polygon_19" data-name="Polygon 19" d="M14.412,4.415a3,3,0,0,1,5.176,0L31.352,24.483A3,3,0,0,1,28.764,29H5.236a3,3,0,0,1-2.588-4.517Z" transform="translate(1645.843 4277.216) rotate(-90)" fill="#3cb4e5"/>
      <path id="Intersection_4" data-name="Intersection 4" d="M300.915-99.412a3,3,0,0,1,0-5.176l7.835-4.593,7.835,4.593a3,3,0,0,1,0,5.176l-7.835,4.593Z" transform="translate(1349.343 4361.936)" fill="#76bc21"/>
    </g>
  </g>
</svg>
