<svg xmlns="http://www.w3.org/2000/svg" width="33" height="33" viewBox="0 0 33 33">
  <g id="icon-instagram" transform="translate(-1103 -8203.01)">
    <circle id="Ellipse_12" data-name="Ellipse 12" cx="16.5" cy="16.5" r="16.5" transform="translate(1103 8203.01)" fill="#fff"/>
    <g id="Icon_feather-instagram" data-name="Icon feather-instagram" transform="translate(1109.562 8209.572)">
      <path id="Path_114" data-name="Path 114" d="M7.969,3h9.938a4.969,4.969,0,0,1,4.969,4.969v9.938a4.969,4.969,0,0,1-4.969,4.969H7.969A4.969,4.969,0,0,1,3,17.907V7.969A4.969,4.969,0,0,1,7.969,3Z" transform="translate(-3 -3)" fill="none" stroke="#00437a" stroke-linecap="round" stroke-linejoin="round" stroke-width="2"/>
      <path id="Path_115" data-name="Path 115" d="M19.972,15.327a3.975,3.975,0,1,1-3.349-3.349,3.975,3.975,0,0,1,3.349,3.349Z" transform="translate(-6.059 -6.015)" fill="none" stroke="#00437a" stroke-linecap="round" stroke-linejoin="round" stroke-width="2"/>
      <path id="Path_116" data-name="Path 116" d="M26.25,9.75h0" transform="translate(-10.846 -5.278)" fill="none" stroke="#00437a" stroke-linecap="round" stroke-linejoin="round" stroke-width="2"/>
    </g>
  </g>
</svg>
