<svg xmlns="http://www.w3.org/2000/svg" width="137.543" height="37.401" viewBox="0 0 137.543 37.401">
  <g id="voov-io-logo" transform="translate(2031.969 -99.36)">
    <path id="Path_1" data-name="Path 1" d="M-1995.27,99.557l-12.975,26.373-5.375,10.923-5.375-10.923-12.975-26.373h10.747l7.6,15.45,7.6-15.45Z" transform="translate(0 -0.091)" fill="#76bc21"/>
    <path id="Path_2" data-name="Path 2" d="M-1807.495,99.557l-12.975,26.373-5.373,10.921-5.375-10.921-12.975-26.373h10.747l7.6,15.45,7.6-15.45Z" transform="translate(-86.932 -0.091)" fill="#ffb71b"/>
    <path id="Path_3" data-name="Path 3" d="M-1870.536,117.839a18.48,18.48,0,0,1-18.479,18.478,18.479,18.479,0,0,1-16.49-10.13,18.4,18.4,0,0,1-1.989-8.348,18.4,18.4,0,0,1,1.989-8.348,18.479,18.479,0,0,1,16.49-10.13A18.479,18.479,0,0,1-1870.536,117.839Z" transform="translate(-57.626)" fill="#3cb4e5"/>
    <path id="Path_4" data-name="Path 4" d="M-1938.458,117.839a20.908,20.908,0,0,0,3.01,10.83,18.449,18.449,0,0,1-14.972,7.649,18.479,18.479,0,0,1-18.478-18.478,18.479,18.479,0,0,1,16.5-18.373,18.593,18.593,0,0,1,1.982-.106,18.587,18.587,0,0,1,1.983.106,18.45,18.45,0,0,1,12.99,7.543A20.912,20.912,0,0,0-1938.458,117.839Z" transform="translate(-29.199)" fill="#ff4713"/>
  </g>
</svg>
